<?xml version="1.0" encoding="UTF-8" standalone="no"?>
<!-- Created with Inkscape (http://www.inkscape.org/) -->

<svg
   width="125.4125mm"
   height="125.41251mm"
   viewBox="0 0 125.4125 125.41251"
   version="1.1"
   id="svg5"
   inkscape:version="1.2 (dc2aedaf03, 2022-05-15)"
   sodipodi:docname="YClogo.svg"
   xmlns:inkscape="http://www.inkscape.org/namespaces/inkscape"
   xmlns:sodipodi="http://sodipodi.sourceforge.net/DTD/sodipodi-0.dtd"
   xmlns="http://www.w3.org/2000/svg"
   xmlns:svg="http://www.w3.org/2000/svg">
  <sodipodi:namedview
     id="namedview7"
     pagecolor="#ffffff"
     bordercolor="#000000"
     borderopacity="0.25"
     inkscape:showpageshadow="2"
     inkscape:pageopacity="0.0"
     inkscape:pagecheckerboard="0"
     inkscape:deskcolor="#d1d1d1"
     inkscape:document-units="mm"
     showgrid="false"
     showguides="true"
     inkscape:zoom="1"
     inkscape:cx="380"
     inkscape:cy="863.5"
     inkscape:window-width="1500"
     inkscape:window-height="930"
     inkscape:window-x="-6"
     inkscape:window-y="-6"
     inkscape:window-maximized="1"
     inkscape:current-layer="layer5">
    <inkscape:grid
       type="xygrid"
       id="grid1048" />
  </sodipodi:namedview>
  <defs
     id="defs2" />
  <g
     inkscape:label="Layer 1"
     inkscape:groupmode="layer"
     id="layer1"
     style="display:none"
     transform="translate(-28.045832,-67.204161)">
    <circle
       style="font-variation-settings:'wght' 700;fill:none;stroke:#000000;stroke-width:0.37;stroke-dasharray:none;stroke-opacity:1"
       id="path308"
       cx="102.56569"
       cy="74.092697"
       r="22.495234" />
    <circle
       style="font-variation-settings:'wght' 700;fill:none;stroke:#000000;stroke-width:0.197216;stroke-dasharray:none;stroke-opacity:1"
       id="circle472"
       cx="85.843651"
       cy="107.50642"
       r="14.78808" />
    <rect
       style="font-variation-settings:'wght' 700;fill:none;stroke:#000000;stroke-width:0.287165;stroke-dasharray:none;stroke-opacity:1"
       id="rect1085"
       width="3.9155676"
       height="51.652065"
       x="100.68655"
       y="106.43522" />
    <circle
       style="font-variation-settings:'wght' 700;fill:none;stroke:#000000;stroke-width:0.368;stroke-dasharray:none;stroke-opacity:1"
       id="circle1136"
       cx="102.5657"
       cy="74.203934"
       r="18.258417" />
    <circle
       style="font-variation-settings:'wght' 700;fill:none;stroke:#000000;stroke-width:0.248817;stroke-dasharray:none;stroke-opacity:1"
       id="circle1138"
       cx="82.222198"
       cy="75.347191"
       r="2.1285093" />
    <circle
       style="font-variation-settings:'wght' 700;fill:none;stroke:#000000;stroke-width:0.288667;stroke-dasharray:none;stroke-opacity:1"
       id="circle1142"
       cx="122.89715"
       cy="75.401924"
       r="2.1399169" />
    <circle
       style="font-variation-settings:'wght' 700;fill:none;stroke:#000000;stroke-width:0.57306;stroke-dasharray:none;stroke-opacity:1"
       id="circle1144"
       cx="102.64714"
       cy="158.70256"
       r="2.1599545" />
    <circle
       style="font-variation-settings:'wght' 700;fill:none;stroke:#000000;stroke-width:0.197216;stroke-dasharray:none;stroke-opacity:1"
       id="circle2796"
       cx="119.38443"
       cy="107.44673"
       r="14.78808" />
  </g>
  <g
     inkscape:groupmode="layer"
     id="layer3"
     inkscape:label="First V"
     style="display:none"
     transform="translate(-28.045832,-67.204161)">
    <circle
       style="font-variation-settings:'wght' 700;display:inline;fill:none;stroke:#000000;stroke-width:0.37;stroke-dasharray:none;stroke-opacity:1"
       id="path308-1"
       cx="155.29941"
       cy="205.48753"
       r="22.495234" />
    <circle
       style="font-variation-settings:'wght' 700;display:inline;fill:none;stroke:#000000;stroke-width:0.368;stroke-dasharray:none;stroke-opacity:1"
       id="circle1136-3"
       cx="155.29941"
       cy="205.59877"
       r="18.258417" />
  </g>
  <g
     inkscape:groupmode="layer"
     id="layer2"
     inkscape:label="V2"
     style="display:inline"
     transform="translate(-28.045832,-67.204161)">
    <path
       style="font-variation-settings:'wght' 700;display:none;fill:none;stroke:#000000;stroke-width:0.294;stroke-dasharray:none"
       d="m 18.840846,37.224214 c -2.110659,-0.0031 -2.110044,2.685648 -2.110044,2.685648 0,0 -1.223294,15.827991 11.37888,22.479843 7.93988,4.190934 7.94604,8.379046 8.02486,13.550859 0.17729,11.63217 0.0739,35.923526 0.0739,35.923526 0,0 -0.29008,2.69526 1.87794,2.71141 2.16802,0.0162 2.00454,-2.72724 2.00454,-2.72724 0,0 0.0118,-24.357306 0.0211,-35.912976 0.004,-5.146043 -0.16759,-9.462477 7.837,-13.607173 12.73701,-6.59509 11.40633,-23.097677 11.40633,-23.097677 0,0 0.0838,-1.999318 -2.04408,-1.999318 -2.12791,0 -2.17836,1.954556 -2.17836,1.954556 0,0 -0.0167,21.723927 -17.05388,21.723927 -17.037194,0 -17.138642,-20.978636 -17.138642,-20.978636 0,0 0.01112,-2.703679 -2.099544,-2.706749 z"
       id="path933"
       sodipodi:nodetypes="zcssczcssczczcz" />
    <g
       inkscape:groupmode="layer"
       id="layer5"
       inkscape:label="V2.2"
       style="display:inline">
      <rect
         style="font-variation-settings:'wght' 700;display:none;fill:#fbaa13;fill-opacity:1;stroke:none;stroke-width:0.529167;stroke-dasharray:none;stroke-opacity:1"
         id="rect5381"
         width="96.837502"
         height="96.837502"
         x="105.56876"
         y="128.05833"
         ry="18.52083"
         inkscape:export-filename=".\rect5381.png"
         inkscape:export-xdpi="96"
         inkscape:export-ydpi="96" />
      <rect
         style="font-variation-settings:'wght' 700;display:none;fill:#fbaa13;fill-opacity:1;stroke:#676767;stroke-width:0.529167;stroke-dasharray:none;stroke-opacity:1"
         id="rect5259"
         width="96.837502"
         height="96.837502"
         x="57.497589"
         y="14.853162" />
      <rect
         style="font-variation-settings:'wght' 700;display:none;fill:#ffffff;fill-opacity:1;stroke:#676767;stroke-width:0.529167;stroke-dasharray:none;stroke-opacity:1"
         id="rect5261"
         width="68.287361"
         height="68.287361"
         x="73.151665"
         y="29.185835" />
      <path
         style="font-variation-settings:'wght' 700;display:none;fill:#fbaa13;fill-opacity:1;stroke:#676767;stroke-width:0.429951;stroke-dasharray:none;stroke-opacity:1"
         d="m 92.114205,35.036134 c -2.125962,0 -2.384273,1.88671 -2.384273,1.88671 0,0 -1.029308,13.72919 9.381591,18.79553 6.470207,3.14865 6.456207,6.80803 6.520247,11.01015 0.14405,9.45121 0.06,25.96345 0.06,25.96345 0,0 0.0533,1.88002 2.51628,1.88002 2.46294,0 2.56059,-1.89288 2.56059,-1.89288 0,0 0.01,-16.56582 0.0171,-25.95488 0.004,-4.18119 -0.004,-7.84983 6.36761,-11.0559 10.41002,-5.23882 9.51051,-18.74013 9.51051,-18.74013 0,0 -0.0306,-1.92564 -2.26178,-1.92169 -2.23114,0.004 -2.23848,1.90547 -2.23848,1.90547 0,0 -0.27314,16.57297 -14.11595,16.57297 -13.84282,0 -13.823109,-16.54972 -13.823109,-16.54972 0,0 0.01552,-1.8991 -2.11042,-1.8991 z"
         id="path5263"
         sodipodi:nodetypes="zcssczcssczczcz" />
      <rect
         style="font-variation-settings:'wght' 700;display:none;fill:#fbaa13;fill-opacity:1;stroke:none;stroke-width:0.529167;stroke-dasharray:none;stroke-opacity:1"
         id="rect6892"
         width="96.837502"
         height="96.837502"
         x="3.0441735"
         y="127.30998"
         ry="20.637501" />
      <g
         id="g6908"
         transform="translate(0.8148115,0.09974882)"
         style="display:none">
        <rect
           style="font-variation-settings:'wght' 700;fill:#ffffff;fill-opacity:1;stroke:none;stroke-width:0.529167;stroke-dasharray:none;stroke-opacity:1"
           id="rect6894"
           width="39.6875"
           height="13.229166"
           x="-176.42166"
           y="54.917191"
           ry="6.614583"
           transform="matrix(-0.58778525,-0.80901699,-0.80901699,0.58778525,0,0)" />
        <rect
           style="font-variation-settings:'wght' 700;fill:#ffffff;fill-opacity:1;stroke:none;stroke-width:0.529167;stroke-dasharray:none;stroke-opacity:1"
           id="rect6896"
           width="39.6875"
           height="13.229166"
           x="167.79121"
           y="-57.812904"
           ry="6.614583"
           transform="rotate(90)" />
        <rect
           style="font-variation-settings:'wght' 700;fill:#ffffff;fill-opacity:1;stroke:#fbaa13;stroke-width:2.029;stroke-dasharray:none;stroke-opacity:1"
           id="rect6898"
           width="39.6875"
           height="13.229166"
           x="-117.73682"
           y="136.24458"
           ry="6.614583"
           transform="rotate(-54)" />
      </g>
      <g
         id="g1323">
        <g
           id="g6903"
           transform="matrix(1.3120681,0,0,1.3120681,-110.15624,-102.13807)"
           inkscape:export-filename="yc.svg"
           inkscape:export-xdpi="96"
           inkscape:export-ydpi="96"
           style="display:inline">
          <path
             id="rect5375"
             style="fill:#ffffff;stroke-width:0.529167"
             transform="rotate(-54)"
             d="m -50.609633,220.25156 h 26.458334 c 3.664479,0 6.614583,2.9501 6.614583,6.61458 0,3.66448 -2.950104,6.61458 -6.614583,6.61458 h -26.458334 c -3.664479,0 -6.614583,-2.9501 -6.614583,-6.61458 0,-3.66448 2.950104,-6.61458 6.614583,-6.61458 z" />
          <path
             id="rect5377"
             style="fill:#ffffff;stroke-width:0.529167"
             transform="rotate(90)"
             d="m 175.15415,-160.33749 h 26.45833 c 3.66448,0 6.61459,2.9501 6.61459,6.61458 0,3.66448 -2.95011,6.61458 -6.61459,6.61458 h -26.45833 c -3.66448,0 -6.61458,-2.9501 -6.61458,-6.61458 0,-3.66448 2.9501,-6.61458 6.61458,-6.61458 z" />
          <g
             id="rect5379"
             transform="matrix(-0.58778525,-0.80901699,-0.80901699,0.58778525,0,0)"
             style="display:inline">
            <path
               style="color:#000000;fill:#ffffff;stroke-width:2.229"
               d="m -231.53054,-28.210041 h 26.45833 c 3.66448,0 6.61458,2.950104 6.61458,6.614583 0,3.664479 -2.9501,6.614583 -6.61458,6.614583 h -26.45833 c -3.66448,0 -6.61459,-2.950104 -6.61459,-6.614583 0,-3.664479 2.95011,-6.614583 6.61459,-6.614583 z"
               id="path377" />
            <path
               style="color:#000000;fill:#fbaa13"
               d="m -231.53125,-29.324219 c -4.26263,0 -7.72852,3.465885 -7.72852,7.728516 0,4.262631 3.46589,7.728516 7.72852,7.728515 h 26.45898 c 4.26264,1e-6 7.72852,-3.465886 7.72852,-7.728515 0,-4.262629 -3.46588,-7.728516 -7.72852,-7.728516 z m 0,2.228516 h 26.45898 c 3.06633,0 5.5,2.433678 5.5,5.5 0,3.066321 -2.43367,5.5 -5.5,5.5 h -26.45898 c -3.06632,0 -5.5,-2.433681 -5.5,-5.5 0,-3.06632 2.43368,-5.5 5.5,-5.5 z"
               id="path379" />
          </g>
        </g>
        <rect
           style="font-variation-settings:'wght' 700;fill:#ffffff;fill-opacity:0;stroke-width:2.229"
           id="rect1314"
           width="125.4125"
           height="125.4125"
           x="28.045832"
           y="67.204163"
           ry="0.26458332" />
      </g>
    </g>
  </g>
</svg>
